<!--?xml version="1.0" standalone="no"?-->
              <svg id="sw-js-blob-svg" viewBox="0 0 100 100" xmlns="http://www.w3.org/2000/svg" version="1.1">
                    <defs> 
                        <linearGradient id="sw-gradient" x1="0" x2="1" y1="1" y2="0">
                            <stop id="stop1" stop-color="rgba(248, 117, 55, 1)" offset="0%"></stop>
                            <stop id="stop2" stop-color="rgba(251, 168, 31, 1)" offset="100%"></stop>
                        </linearGradient>
                    </defs>
                <path fill="url(#sw-gradient)" d="M13.8,-24.3C18.5,-21.2,23.2,-18.7,28.5,-14.7C33.8,-10.8,39.7,-5.4,38.7,-0.6C37.6,4.2,29.7,8.4,24.4,12.4C19.2,16.5,16.6,20.4,13,25C9.4,29.5,4.7,34.6,-0.4,35.3C-5.5,36.1,-11.1,32.4,-16.2,28.7C-21.4,25.1,-26.2,21.5,-31,16.7C-35.9,11.9,-40.8,6,-40,0.4C-39.2,-5.1,-32.8,-10.1,-28,-15C-23.2,-19.8,-20,-24.5,-15.6,-27.8C-11.2,-31,-5.6,-32.9,-0.5,-32C4.6,-31.1,9.1,-27.4,13.8,-24.3Z" width="100%" height="100%" transform="translate(50 50)" stroke-width="0" style="transition: all 0.3s ease 0s;"></path>
              </svg>